<svg xmlns="http://www.w3.org/2000/svg" width="500" height="500" viewBox="0 0 500 500" class="Icon" role="img"><g fill="#fff"><path fill="#FFF" d="M496.8 268.5c.3-4.1.5-8.2.6-12.3.1-2.1.1-4.1.1-6.2 0-59.9-21.1-116.6-59.9-161.5-4-4.6-8.2-9.2-12.6-13.5-40.9-40.9-93.6-65.7-150.4-71.3-2-.2-4.1-.4-6.1-.5-4.1-.3-8.2-.5-12.3-.6-2.1-.1-4.1-.1-6.2-.1-2.1 0-4.1 0-6.2.1-4.1.1-8.2.3-12.3.6-2 .1-4.1.3-6.1.5C168.6 9.3 115.9 34.1 75 75c-4.4 4.4-8.6 8.9-12.6 13.5C23.6 133.4 2.5 190.1 2.5 250c0 2.1 0 4.1.1 6.2.1 4.1.3 8.2.6 12.3.1 2 .3 4.1.5 6.1C9.3 331.4 34.1 384.1 75 425c40.9 40.9 93.6 65.7 150.4 71.3 2 .2 4.1.4 6.1.5 4.1.3 8.2.5 12.3.6 2.1.1 4.1.1 6.2.1 2.1 0 4.1 0 6.2-.1 4.1-.1 8.2-.3 12.3-.6 2-.1 4.1-.3 6.1-.5 56.8-5.6 109.5-30.4 150.4-71.3 40.9-40.9 65.7-93.6 71.3-150.4.2-2 .4-4.1.5-6.1zm-5.5 5.6c-5.5 55.7-29.8 107.3-69.9 147.4C379.9 463 326 487.6 268 491.9c-6 .4-12 .7-18.1.7-64.8 0-125.7-25.2-171.5-71C38.3 381.5 14 329.9 8.5 274.2c-.8-8-1.2-16-1.2-24.1 0-20.2 2.5-40.1 7.2-59.2C25.3 148.6 47 110 78.5 78.5c25.8-25.8 56.3-45 89.6-56.9 1.9-.7 3.7-1.3 5.6-1.9 7.5-2.5 15.1-4.6 22.8-6.3 17.4-3.9 35.3-5.9 53.5-5.9 6.1 0 12.1.2 18.1.7 58 4.2 111.9 28.9 153.4 70.4 40.1 40.1 64.4 91.7 69.9 147.4.8 8 1.2 16 1.2 24.1-.1 8-.5 16-1.3 24z" opacity=".55"></path><path fill="#FFF" d="M482.9 296.7c.8-3.8 1.4-7.6 2-11.5.6-3.9 1-7.7 1.4-11.6.8-7.8 1.1-15.7 1.1-23.6 0-7.9-.4-15.8-1.1-23.6-.4-3.9-.9-7.8-1.4-11.6-.9-5.8-1.9-11.5-3.2-17.2-9.7-43.4-31.6-83.3-63.8-115.6-35-35-79.1-57.8-127-66.1-13.4-2.3-27.1-3.5-41-3.5C186.5 12.4 126.8 37.1 82 82c-44.8 44.9-69.5 104.6-69.5 168 0 15.9 1.5 31.5 4.6 46.7 9.1 45.6 31.4 87.6 65 121.2 32.2 32.2 72.1 54.1 115.6 63.8 5.7 1.3 11.4 2.3 17.2 3.2 3.9.6 7.7 1 11.6 1.4 7.8.8 15.7 1.1 23.6 1.1 7.9 0 15.8-.4 23.6-1.1 3.9-.4 7.8-.9 11.6-1.4 1.9-.3 3.8-.6 5.8-.9 47.9-8.3 91.9-31 127-66.1 33.5-33.6 55.8-75.6 64.8-121.2zM406 422.4c-2.9 2.6-5.8 5.1-8.7 7.5l-4.5 3.6c-40.6 31.8-90.4 49-142.8 49-52.4 0-102.2-17.2-142.8-49-4.5-3.5-8.9-7.2-13.2-11.1-2.9-2.6-5.7-5.3-8.4-8s-5.4-5.5-8-8.4c-3.9-4.3-7.6-8.7-11.1-13.2-31.8-40.6-49-90.4-49-142.8 0-62.1 24.2-120.5 68.1-164.4 2.7-2.7 5.5-5.4 8.4-8 4.3-3.9 8.7-7.6 13.2-11.1 40.6-31.8 90.4-49 142.8-49 52.4 0 102.2 17.2 142.8 49l4.5 3.6c3 2.4 5.9 4.9 8.7 7.5 2.9 2.6 5.7 5.3 8.4 8 43.9 43.9 68.1 102.3 68.1 164.4 0 52.4-17.2 102.2-49 142.8-3.5 4.5-7.2 8.9-11.1 13.2-2.6 2.9-5.3 5.7-8 8.4s-5.5 5.4-8.4 8z" opacity=".5"></path><path fill="#FFF" d="M472 300.2c.4-1.8.8-3.6 1.1-5.4.7-3.6 1.4-7.3 1.9-11 .3-1.8.5-3.7.8-5.6.5-3.7.8-7.4 1.1-11.2.4-5.6.6-11.3.6-17 0-5.7-.2-11.4-.6-17-.3-3.7-.6-7.5-1.1-11.2-1.4-11.1-3.5-22.1-6.5-32.8-10.3-37.4-30.2-71.7-58.4-99.9C380 58.2 341.8 37.3 300.2 28c-1.8-.4-3.6-.8-5.4-1.1-3.6-.7-7.3-1.4-11-1.9-11.1-1.6-22.3-2.5-33.7-2.5-5.7 0-11.4.2-17 .6-3.7.3-7.5.6-11.2 1.1-1.9.2-3.7.5-5.6.8-3.7.5-7.4 1.2-11 1.9-1.8.4-3.6.7-5.4 1.1-41.7 9.3-79.9 30.2-110.8 61.1C62.3 116 43 148.4 32.3 183.7c-6.4 21.2-9.8 43.5-9.8 66.3 0 5.7.2 11.4.6 17 .3 3.7.6 7.5 1.1 11.2.2 1.9.5 3.7.8 5.6.5 3.7 1.2 7.4 1.9 11 .4 1.8.7 3.6 1.1 5.4 9.3 41.6 30.2 79.8 61.1 110.7 30.9 30.9 69.1 51.8 110.7 61.1 1.8.4 3.6.8 5.4 1.1 3.6.7 7.3 1.4 11 1.9 1.8.3 3.7.5 5.6.8 3.7.5 7.4.8 11.2 1.1 5.6.4 11.3.6 17 .6 11.4 0 22.7-.8 33.7-2.5 3.7-.5 7.4-1.2 11-1.9 1.8-.4 3.6-.7 5.4-1.1 41.6-9.3 79.8-30.2 110.7-61.1 31-30.9 51.9-69.1 61.2-110.7zm-210.9 172a205.613 205.613 0 0 1-22.2 0c-55.3-2.7-106.8-25.5-146.2-64.9-39.4-39.4-62.2-91-64.9-146.2a205.613 205.613 0 0 1 0-22.2C30.1 191.8 47 147.5 76.3 111c5.1-6.3 10.6-12.5 16.4-18.3 25-25 54.8-43.2 87.3-54 22.3-7.4 45.8-11.2 70-11.2 24.2 0 47.7 3.8 70 11.2 32.6 10.7 62.4 29 87.3 54 5.8 5.8 11.3 12 16.4 18.3 29.3 36.5 46.2 80.9 48.5 127.9a205.613 205.613 0 0 1 0 22.2c-2.7 55.3-25.5 106.8-64.9 146.2-39.4 39.4-90.9 62.2-146.2 64.9z" opacity=".45"></path><path fill="#FFF" d="M465.9 223.1c-.4-3.5-1-7.1-1.6-10.6-.3-1.8-.6-3.5-1-5.2-1.4-7-3.1-13.8-5.1-20.6-.5-1.7-1-3.4-1.6-5-10.5-31.8-28.4-61-52.8-85.4-29.5-29.5-66-49.5-105.8-58.4-15.6-3.5-31.6-5.3-48-5.3-16.3 0-32.4 1.8-48 5.3-39.8 8.9-76.3 28.9-105.8 58.4-24.4 24.4-42.3 53.6-52.8 85.4-.6 1.7-1.1 3.4-1.6 5-2 6.8-3.8 13.6-5.1 20.6-.3 1.7-.7 3.5-1 5.2-.6 3.5-1.1 7-1.6 10.6C33 232 32.5 241 32.5 250c0 58.1 22.6 112.7 63.7 153.8 41.1 41.1 95.7 63.7 153.8 63.7 58.1 0 112.7-22.6 153.8-63.7 41.1-41.1 63.7-95.7 63.7-153.8 0-9.1-.6-18.1-1.6-26.9zM250 462.5c-117.2 0-212.5-95.3-212.5-212.5S132.8 37.5 250 37.5 462.5 132.8 462.5 250 367.2 462.5 250 462.5z" opacity=".4"></path><path fill="#FFF" d="M250 42.5C135.6 42.5 42.5 135.6 42.5 250S135.6 457.5 250 457.5 457.5 364.4 457.5 250 364.4 42.5 250 42.5zm0 410c-111.7 0-202.5-90.8-202.5-202.5S138.3 47.5 250 47.5 452.5 138.3 452.5 250 361.7 452.5 250 452.5z" opacity=".35"></path><path fill="#000" d="M500 285.7v-71.3c-7.6-53.9-32.3-103.7-71.5-142.9C389.4 32.3 339.6 7.6 285.7 0h-71.3c-54 7.6-103.8 32.3-142.9 71.5C32.3 110.6 7.6 160.4 0 214.3v71.3c7.6 53.9 32.3 103.7 71.5 142.9s89 63.9 142.9 71.5h71.3c53.9-7.6 103.7-32.3 142.9-71.5 39.1-39.1 63.8-88.9 71.4-142.8zM274.6 496.3c-2 .2-4.1.4-6.1.5-4.1.3-8.2.5-12.3.6-2.1.1-4.1.1-6.2.1-2.1 0-4.1 0-6.2-.1-4.1-.1-8.2-.3-12.3-.6-2-.1-4.1-.3-6.1-.5-56.8-5.6-109.5-30.4-150.4-71.3-40.9-40.9-65.7-93.6-71.3-150.4-.2-2-.4-4.1-.5-6.1-.3-4.1-.5-8.2-.6-12.3-.1-2.1-.1-4.1-.1-6.2 0-59.9 21.1-116.6 59.9-161.5 4-4.6 8.2-9.2 12.6-13.5 40.9-40.9 93.6-65.7 150.4-71.3 2-.2 4.1-.4 6.1-.5 4.1-.3 8.2-.5 12.3-.6 2.1-.1 4.1-.1 6.2-.1 2.1 0 4.1 0 6.2.1 4.1.1 8.2.3 12.3.6 2 .1 4.1.3 6.1.5C331.4 9.3 384.1 34.1 425 75c4.4 4.4 8.6 8.9 12.6 13.5 38.8 44.9 59.9 101.6 59.9 161.5 0 2.1 0 4.1-.1 6.2-.1 4.1-.3 8.2-.6 12.3-.1 2-.3 4.1-.5 6.1-5.6 56.8-30.4 109.5-71.3 150.4-40.9 40.9-93.6 65.7-150.4 71.3z" opacity=".14"></path><path fill="#000" d="M421.5 78.5C380 37 326.1 12.4 268.1 8.2c-6-.4-12-.7-18.1-.7-18.2 0-36.1 2-53.5 5.9-7.7 1.7-15.3 3.8-22.8 6.3-1.9.6-3.7 1.3-5.6 1.9-33.3 11.9-63.9 31.2-89.6 56.9C47 110 25.3 148.6 14.7 190.8c-4.8 19.1-7.2 39-7.2 59.2 0 8.1.4 16.1 1.2 24.1 5.5 55.7 29.8 107.3 69.9 147.4 45.8 45.8 106.7 71 171.5 71 6.1 0 12.1-.2 18.1-.7 58-4.2 111.9-28.9 153.4-70.4 40.1-40.1 64.4-91.7 69.9-147.4.8-8 1.2-16 1.2-24.1 0-8.1-.4-16.1-1.2-24.1-5.6-55.6-29.9-107.2-70-147.3zm-3.6 339.4c-35 35-79.1 57.8-127 66.1-1.9.3-3.8.6-5.8.9-3.9.6-7.7 1-11.6 1.4-7.8.8-15.7 1.1-23.6 1.1-7.9 0-15.8-.4-23.6-1.1-3.9-.4-7.8-.9-11.6-1.4-5.8-.9-11.5-1.9-17.2-3.2-43.4-9.7-83.3-31.6-115.6-63.8-33.6-33.6-56-75.6-65-121.2-3-15.2-4.6-30.8-4.6-46.7 0-63.4 24.7-123.1 69.6-167.9 45-44.9 104.7-69.6 168.1-69.6 13.9 0 27.6 1.2 41 3.5 47.9 8.3 91.9 31 127 66.1 32.2 32.2 54.1 72.1 63.8 115.6 1.3 5.7 2.3 11.4 3.2 17.2.6 3.9 1 7.7 1.4 11.6.8 7.8 1.1 15.7 1.1 23.6 0 7.9-.4 15.8-1.1 23.6-.4 3.9-.9 7.8-1.4 11.6-.6 3.9-1.2 7.7-2 11.5-9.1 45.5-31.4 87.5-65.1 121.1z" opacity=".12"></path><path fill="#000" d="M433.5 392.8c31.8-40.6 49-90.4 49-142.8 0-62.1-24.2-120.5-68.1-164.4-2.7-2.7-5.5-5.4-8.4-8-2.9-2.6-5.8-5.1-8.7-7.5l-4.5-3.6c-40.6-31.8-90.4-49-142.8-49-52.4 0-102.2 17.2-142.8 49-4.5 3.5-8.9 7.2-13.2 11.1-2.9 2.6-5.7 5.3-8.4 8C41.7 129.5 17.5 187.9 17.5 250c0 52.4 17.2 102.2 49 142.8 3.5 4.5 7.2 8.9 11.1 13.2 2.6 2.9 5.3 5.7 8 8.4s5.5 5.4 8.4 8c4.3 3.9 8.7 7.6 13.2 11.1 40.6 31.8 90.4 49 142.8 49 52.4 0 102.2-17.2 142.8-49l4.5-3.6c3-2.4 5.9-4.9 8.7-7.5 2.8-2.6 5.7-5.3 8.4-8s5.4-5.5 8-8.4c3.9-4.3 7.6-8.7 11.1-13.2zm-22.6 18.1c-30.9 30.9-69.1 51.8-110.7 61.1-1.8.4-3.6.8-5.4 1.1-3.6.7-7.3 1.4-11 1.9-11.1 1.6-22.3 2.5-33.7 2.5-5.7 0-11.4-.2-17-.6-3.7-.3-7.5-.6-11.2-1.1-1.9-.2-3.7-.5-5.6-.8-3.7-.5-7.4-1.2-11-1.9-1.8-.4-3.6-.7-5.4-1.1-41.6-9.3-79.8-30.2-110.7-61.1-31-30.9-51.9-69.1-61.2-110.7-.4-1.8-.8-3.6-1.1-5.4-.7-3.6-1.4-7.3-1.9-11-.3-1.8-.5-3.7-.8-5.6-.5-3.7-.8-7.4-1.1-11.2-.4-5.6-.6-11.3-.6-17 0-22.8 3.3-45.1 9.8-66.3 10.7-35.3 30-67.7 56.9-94.6 30.8-30.9 69-51.8 110.6-61.1 1.8-.4 3.6-.8 5.4-1.1 3.6-.7 7.3-1.4 11-1.9 1.8-.3 3.7-.5 5.6-.8 3.7-.5 7.4-.8 11.2-1.1 5.6-.4 11.3-.6 17-.6 11.4 0 22.7.8 33.7 2.5 3.7.5 7.4 1.2 11 1.9 1.8.4 3.6.7 5.4 1.1 41.6 9.3 79.8 30.2 110.7 61.1 28.2 28.2 48.1 62.5 58.4 99.9 3 10.7 5.1 21.6 6.5 32.8.5 3.7.8 7.4 1.1 11.2.4 5.6.6 11.3.6 17 0 5.7-.2 11.4-.6 17-.3 3.7-.6 7.5-1.1 11.2-.2 1.9-.5 3.7-.8 5.6-.5 3.7-1.2 7.4-1.9 11-.4 1.8-.7 3.6-1.1 5.4-9.2 41.6-30.1 79.8-61 110.7z" opacity=".1"></path><path fill="#000" d="M472.5 250c0-3.7-.1-7.4-.3-11.1-2.3-47.1-19.2-91.5-48.5-127.9-5.1-6.3-10.6-12.5-16.4-18.3-25-25-54.8-43.2-87.3-54-22.3-7.4-45.8-11.2-70-11.2-24.2 0-47.7 3.8-70 11.2-32.6 10.7-62.4 29-87.3 54-5.8 5.8-11.3 12-16.4 18.3-29.3 36.5-46.2 80.8-48.5 127.9a205.613 205.613 0 0 0 0 22.2c2.7 55.3 25.5 106.8 64.9 146.2 39.4 39.4 91 62.2 146.2 64.9a205.613 205.613 0 0 0 22.2 0c55.3-2.7 106.8-25.5 146.2-64.9 39.4-39.4 62.2-91 64.9-146.2.2-3.7.3-7.4.3-11.1zm-68.7 153.8c-41.1 41.1-95.7 63.7-153.8 63.7-58.1 0-112.7-22.6-153.8-63.7-41.1-41.1-63.7-95.7-63.7-153.8 0-9.1.6-18.1 1.6-26.9.4-3.5 1-7.1 1.6-10.6.3-1.8.6-3.5 1-5.2 1.4-7 3.1-13.8 5.1-20.6.5-1.7 1-3.4 1.6-5 10.5-31.8 28.4-61 52.8-85.4 29.5-29.5 66-49.5 105.8-58.4 15.6-3.5 31.6-5.3 48-5.3 16.3 0 32.4 1.8 48 5.3 39.8 8.9 76.3 28.9 105.8 58.4 24.4 24.4 42.3 53.6 52.8 85.4.6 1.7 1.1 3.4 1.6 5 2 6.8 3.8 13.6 5.1 20.6.3 1.7.7 3.5 1 5.2.6 3.5 1.1 7 1.6 10.6 1.1 8.9 1.6 17.9 1.6 26.9 0 58.1-22.6 112.7-63.7 153.8z" opacity=".08"></path><path fill="#000" d="M250 37.5C132.8 37.5 37.5 132.8 37.5 250S132.8 462.5 250 462.5 462.5 367.2 462.5 250 367.2 37.5 250 37.5zm0 420c-114.4 0-207.5-93.1-207.5-207.5S135.6 42.5 250 42.5 457.5 135.6 457.5 250 364.4 457.5 250 457.5z" opacity=".06"></path><path fill="#FFF" d="M285.7 500h26.4c45-11.1 86.4-34.3 120-67.9 33.6-33.6 56.8-75 67.9-120v-26.4c-7.6 53.9-32.3 103.7-71.5 142.9-39.1 39.1-88.9 63.8-142.8 71.4z" opacity=".6"></path><path fill="#000" d="M312.1 500h18.3c39.3-12.6 75.2-34.4 105.2-64.4 1.5-1.5 3.1-3.1 4.6-4.7 27.6-29 47.9-63.3 59.8-100.5v-18.3c-11.1 45-34.3 86.4-67.9 120-33.7 33.6-75 56.8-120 67.9z" opacity=".16"></path><path fill="#FFF" d="M435.6 435.6c-30 30-66 51.8-105.2 64.4h15.1c34.7-13.2 66.6-33.8 93.6-60.8 27.1-27.1 47.7-58.9 60.9-93.7v-15.1c-11.9 37.2-32.2 71.5-59.8 100.5-1.5 1.6-3 3.2-4.6 4.7z" opacity=".65"></path><path fill="#000" d="M345.6 500h13.2c2.3-1 4.6-2 6.8-3.1 28.3-13.3 54.3-31.5 77.1-54.2 24.6-24.6 43.9-53 57.3-83.9v-13.2c-13.2 34.7-33.8 66.6-60.8 93.6s-58.8 47.6-93.6 60.8z" opacity=".18"></path><path fill="#FFF" d="M365.505 496.9c-2.302 1.1-4.603 2.1-6.805 3.1h12.008c27.62-13.4 53.138-31.4 75.554-53.8 22.316-22.3 40.329-47.8 53.738-75.5v-12c-13.51 30.9-32.723 59.4-57.34 83.9-22.817 22.8-48.835 41.1-77.155 54.3z" opacity=".7"></path><path fill="#000" d="M370.7 500h11.1c18.7-9.9 36.3-21.8 52.5-35.9 1.8-1.5 3.5-3.1 5.3-4.6 3.5-3.1 6.9-6.4 10.2-9.7 20.3-20.4 37.1-43.3 50.2-68v-11.1c-13.4 27.6-31.4 53.1-53.8 75.5-22.3 22.4-47.8 40.4-75.5 53.8z" opacity=".2"></path><path fill="#FFF" d="M439.6 459.5c-1.7 1.6-3.5 3.1-5.3 4.6-16.2 14-33.8 26-52.5 35.9h10.4c22.1-12.6 42.6-28.2 61.1-46.7 18.5-18.5 34.1-39 46.7-61.1v-10.4a284.34 284.34 0 0 1-50.2 67.9c-3.4 3.4-6.8 6.6-10.2 9.8z" opacity=".75"></path><path fill="#000" d="M392.2 500h9.8c19.7-12 38.1-26.4 54.8-43.2A289.5 289.5 0 0 0 500 402v-9.8c-12.6 22.1-28.2 42.6-46.7 61.1-18.5 18.5-39 34.1-61.1 46.7z" opacity=".22"></path><path fill="#FFF" d="M402 500h9.4c17.5-11.3 33.9-24.6 49-39.6 5.3-5.3 10.3-10.7 15.1-16.3 1.6-1.9 3.2-3.7 4.7-5.6 7.2-8.7 13.8-17.8 19.8-27.1V402a289.5 289.5 0 0 1-43.2 54.8A289.5 289.5 0 0 1 402 500z" opacity=".8"></path><path fill="#000" d="M475.5 444.1c-4.8 5.6-9.9 11-15.1 16.3-15.1 15-31.5 28.3-49 39.6h9c15.4-10.6 30-22.6 43.5-36.1s25.5-28.1 36.1-43.5v-9c-6 9.3-12.6 18.4-19.8 27-1.5 1.9-3.1 3.8-4.7 5.7z" opacity=".24"></path><path fill="#FFF" d="M420.4 500h8.8c9.4-6.8 18.4-14.1 27.1-22 3.8-3.4 7.5-7 11.1-10.6 12-12 22.9-24.8 32.6-38.3v-8.7c-10.6 15.4-22.6 30-36.1 43.5s-28.1 25.5-43.5 36.1z" opacity=".85"></path><path fill="#000" d="M456.35 478c-8.688 7.9-17.763 15.2-27.15 22h8.388c11.784-8.8 22.868-18.5 33.453-29 10.585-10.5 20.171-21.7 28.959-33.4v-8.4c-9.686 13.5-20.761 26.3-32.744 38.3-3.595 3.6-7.111 7.1-10.906 10.5z" opacity=".26"></path><path fill="#FFF" d="M437.6 500h8.2c10-7.9 19.6-16.4 28.7-25.5 9.1-9.1 17.6-18.7 25.5-28.7v-8.2c-8.8 11.7-18.5 22.8-29 33.4-10.5 10.6-21.7 20.2-33.4 29z" opacity=".9"></path><path fill="#000" d="M445.8 500h8c8.4-6.9 16.5-14.2 24.2-22 7.8-7.7 15.1-15.8 22-24.2v-8c-7.9 10-16.4 19.6-25.5 28.7-9.1 9.1-18.7 17.6-28.7 25.5z" opacity=".28"></path><path fill="#FFF" d="M453.8 500h7.8c6.9-5.8 13.6-12 20-18.4 6.4-6.5 12.6-13.2 18.4-20v-7.8c-6.9 8.4-14.2 16.5-22 24.2-7.8 7.7-15.8 15.1-24.2 22z" opacity=".95"></path><path fill="#000" d="M461.6 500h7.6c5.4-4.8 10.8-9.7 15.9-14.9 5.2-5.1 10.1-10.5 14.9-15.9v-7.6c-5.8 6.9-12 13.6-18.4 20-6.5 6.4-13.2 12.6-20 18.4z" opacity=".3"></path><path fill="#FFF" d="M469.2 500h7.6c4-3.7 7.9-7.5 11.8-11.4 3.9-3.8 7.7-7.7 11.4-11.8v-7.6c-4.8 5.4-9.7 10.8-14.9 15.9-5.1 5.2-10.5 10.1-15.9 14.9z"></path><path fill="#000" d="M476.8 500h7.3c.7-.6 1.3-1.2 2-1.8 2.1-2 4.1-4 6.1-6 2.7-2.7 5.3-5.4 7.8-8.1v-7.3c-2.744 3.266-10.477 11-23.2 23.2z" opacity=".32"></path><path fill="#FFF" d="M486.013 498.2c-.705.6-1.309 1.2-2.013 1.8h7.245c1.51-1.4 3.02-2.8 4.428-4.3 1.409-1.5 2.918-2.9 4.327-4.4V484l-7.85 8.1c-2.012 2.1-4.125 4.1-6.137 6.1z"></path><path fill="#000" d="M500 500v-8.7c-1.4 1.5-2.8 2.9-4.3 4.4-1.5 1.5-2.9 2.9-4.4 4.3h8.7z" opacity=".34"></path><g><path fill="#FFF" d="M0 285.7v26.4c11.1 45 34.3 86.4 67.9 120 33.6 33.6 75 56.8 120 67.9h26.4c-53.9-7.6-103.7-32.3-142.9-71.5C32.3 389.4 7.6 339.6 0 285.7z" opacity=".6"></path><path fill="#000" d="M0 312.1v18.3c12.6 39.3 34.4 75.2 64.4 105.2 1.5 1.5 3.1 3.1 4.7 4.6 29 27.6 63.3 47.9 100.5 59.8h18.3c-45-11.1-86.4-34.3-120-67.9-33.6-33.7-56.8-75-67.9-120z" opacity=".16"></path><path fill="#FFF" d="M64.4 435.6c-30-30-51.8-66-64.4-105.2v15.1c13.2 34.7 33.8 66.6 60.8 93.6 27.1 27.1 58.9 47.7 93.7 60.9h15.1c-37.2-11.9-71.5-32.2-100.5-59.8-1.6-1.5-3.2-3-4.7-4.6z" opacity=".65"></path><path fill="#000" d="M0 345.6v13.2c1 2.3 2 4.6 3.1 6.8 13.3 28.3 31.5 54.3 54.2 77.1 24.6 24.6 53 43.9 83.9 57.3h13.2c-34.7-13.2-66.6-33.8-93.6-60.8S13.2 380.4 0 345.6z" opacity=".18"></path><path fill="#FFF" d="M3.1 365.505C2 363.203 1 360.902 0 358.7v12.008c13.4 27.62 31.4 53.138 53.8 75.554 22.3 22.316 47.8 40.329 75.5 53.738h12c-30.9-13.51-59.4-32.723-83.9-57.34-22.8-22.817-41.1-48.835-54.3-77.155z" opacity=".7"></path><path fill="#000" d="M0 370.7v11.1c9.9 18.7 21.8 36.3 35.9 52.5 1.5 1.8 3.1 3.5 4.6 5.3 3.1 3.5 6.4 6.9 9.7 10.2 20.4 20.3 43.3 37.1 68 50.2h11.1c-27.6-13.4-53.1-31.4-75.5-53.8-22.4-22.3-40.4-47.8-53.8-75.5z" opacity=".2"></path><path fill="#FFF" d="M40.5 439.6c-1.6-1.7-3.1-3.5-4.6-5.3-14-16.2-26-33.8-35.9-52.5v10.4c12.6 22.1 28.2 42.6 46.7 61.1 18.5 18.5 39 34.1 61.1 46.7h10.4a284.34 284.34 0 0 1-67.9-50.2c-3.4-3.4-6.6-6.8-9.8-10.2z" opacity=".75"></path><path fill="#000" d="M0 392.2v9.8c12 19.7 26.4 38.1 43.2 54.8A289.5 289.5 0 0 0 98 500h9.8c-22.1-12.6-42.6-28.2-61.1-46.7-18.5-18.5-34.1-39-46.7-61.1z" opacity=".22"></path><path fill="#FFF" d="M0 402v9.4c11.3 17.5 24.6 33.9 39.6 49 5.3 5.3 10.7 10.3 16.3 15.1 1.9 1.6 3.7 3.2 5.6 4.7 8.7 7.2 17.8 13.8 27.1 19.8H98a289.5 289.5 0 0 1-54.8-43.2A289.5 289.5 0 0 1 0 402z" opacity=".8"></path><path fill="#000" d="M55.9 475.5c-5.6-4.8-11-9.9-16.3-15.1-15-15.1-28.3-31.5-39.6-49v9c10.6 15.4 22.6 30 36.1 43.5s28.1 25.5 43.5 36.1h9c-9.3-6-18.4-12.6-27-19.8-1.9-1.5-3.8-3.1-5.7-4.7z" opacity=".24"></path><path fill="#FFF" d="M0 420.4v8.8c6.8 9.4 14.1 18.4 22 27.1 3.4 3.8 7 7.5 10.6 11.1 12 12 24.8 22.9 38.3 32.6h8.7c-15.4-10.6-30-22.6-43.5-36.1S10.6 435.8 0 420.4z" opacity=".85"></path><path fill="#000" d="M22 456.35c-7.9-8.688-15.2-17.763-22-27.15v8.388c8.8 11.784 18.5 22.868 29 33.453C39.5 481.626 50.7 491.212 62.4 500h8.4c-13.5-9.686-26.3-20.761-38.3-32.744-3.6-3.595-7.1-7.111-10.5-10.906z" opacity=".26"></path><path fill="#FFF" d="M0 437.6v8.2c7.9 10 16.4 19.6 25.5 28.7 9.1 9.1 18.7 17.6 28.7 25.5h8.2c-11.7-8.8-22.8-18.5-33.4-29-10.6-10.5-20.2-21.7-29-33.4z" opacity=".9"></path><path fill="#000" d="M0 445.8v8c6.9 8.4 14.2 16.5 22 24.2 7.7 7.8 15.8 15.1 24.2 22h8c-10-7.9-19.6-16.4-28.7-25.5-9.1-9.1-17.6-18.7-25.5-28.7z" opacity=".28"></path><path fill="#FFF" d="M0 453.8v7.8c5.8 6.9 12 13.6 18.4 20 6.5 6.4 13.2 12.6 20 18.4h7.8c-8.4-6.9-16.5-14.2-24.2-22-7.7-7.8-15.1-15.8-22-24.2z" opacity=".95"></path><path fill="#000" d="M0 461.6v7.6c4.8 5.4 9.7 10.8 14.9 15.9 5.1 5.2 10.5 10.1 15.9 14.9h7.6c-6.9-5.8-13.6-12-20-18.4-6.4-6.5-12.6-13.2-18.4-20z" opacity=".3"></path><path fill="#FFF" d="M0 469.2v7.6c3.7 4 7.5 7.9 11.4 11.8 3.8 3.9 7.7 7.7 11.8 11.4h7.6c-5.4-4.8-10.8-9.7-15.9-14.9C9.7 480 4.8 474.6 0 469.2z"></path><path fill="#000" d="M0 476.8v7.3c.6.7 1.2 1.3 1.8 2 2 2.1 4 4.1 6 6.1 2.7 2.7 5.4 5.3 8.1 7.8h7.3c-3.266-2.744-11-10.477-23.2-23.2z" opacity=".32"></path><path fill="#FFF" d="M1.8 486.013C1.2 485.308.6 484.704 0 484v7.245c1.4 1.51 2.8 3.02 4.3 4.428 1.5 1.409 2.9 2.918 4.4 4.327H16l-8.1-7.85c-2.1-2.012-4.1-4.125-6.1-6.137z"></path><path fill="#000" d="M0 500h8.7c-1.5-1.4-2.9-2.8-4.4-4.3-1.5-1.5-2.9-2.9-4.3-4.4v8.7z" opacity=".34"></path></g><g><path fill="#FFF" d="M500 214.3v-26.4c-11.1-45-34.3-86.4-67.9-120-33.6-33.6-75-56.8-120-67.9h-26.4c53.9 7.6 103.7 32.3 142.9 71.5 39.1 39.1 63.8 88.9 71.4 142.8z" opacity=".6"></path><path fill="#000" d="M500 187.9v-18.3c-12.6-39.3-34.4-75.2-64.4-105.2-1.5-1.5-3.1-3.1-4.7-4.6-29-27.6-63.3-47.9-100.5-59.8h-18.3c45 11.1 86.4 34.3 120 67.9 33.6 33.7 56.8 75 67.9 120z" opacity=".16"></path><path fill="#FFF" d="M435.6 64.4c30 30 51.8 66 64.4 105.2v-15.1c-13.2-34.7-33.8-66.6-60.8-93.6-27.1-27.1-58.9-47.7-93.7-60.9h-15.1c37.2 11.9 71.5 32.2 100.5 59.8 1.6 1.5 3.2 3 4.7 4.6z" opacity=".65"></path><path fill="#000" d="M500 154.4v-13.2c-1-2.3-2-4.6-3.1-6.8-13.3-28.3-31.5-54.3-54.2-77.1-24.6-24.6-53-43.9-83.9-57.3h-13.2c34.7 13.2 66.6 33.8 93.6 60.8s47.6 58.8 60.8 93.6z" opacity=".18"></path><path fill="#FFF" d="M496.9 134.495c1.1 2.302 2.1 4.603 3.1 6.805v-12.008c-13.4-27.62-31.4-53.138-53.8-75.554C423.9 31.422 398.4 13.409 370.7 0h-12c30.9 13.51 59.4 32.723 83.9 57.34 22.8 22.817 41.1 48.835 54.3 77.155z" opacity=".7"></path><path fill="#000" d="M500 129.3v-11.1c-9.9-18.7-21.8-36.3-35.9-52.5-1.5-1.8-3.1-3.5-4.6-5.3-3.1-3.5-6.4-6.9-9.7-10.2-20.4-20.3-43.3-37.1-68-50.2h-11.1c27.6 13.4 53.1 31.4 75.5 53.8 22.4 22.3 40.4 47.8 53.8 75.5z" opacity=".2"></path><path fill="#FFF" d="M459.5 60.4c1.6 1.7 3.1 3.5 4.6 5.3 14 16.2 26 33.8 35.9 52.5v-10.4c-12.6-22.1-28.2-42.6-46.7-61.1-18.5-18.5-39-34.1-61.1-46.7h-10.4c24.7 13.1 47.6 29.9 67.9 50.2 3.4 3.4 6.6 6.8 9.8 10.2z" opacity=".75"></path><path fill="#000" d="M500 107.8V98a289.5 289.5 0 0 0-43.2-54.8A289.5 289.5 0 0 0 402 0h-9.8c22.1 12.6 42.6 28.2 61.1 46.7 18.5 18.5 34.1 39 46.7 61.1z" opacity=".22"></path><path fill="#FFF" d="M500 98v-9.4c-11.3-17.5-24.6-33.9-39.6-49-5.3-5.3-10.7-10.3-16.3-15.1-1.9-1.6-3.7-3.2-5.6-4.7C429.8 12.6 420.7 6 411.4 0H402c19.7 12 38.1 26.4 54.8 43.2A289.5 289.5 0 0 1 500 98z" opacity=".8"></path><path fill="#000" d="M444.1 24.5c5.6 4.8 11 9.9 16.3 15.1 15 15.1 28.3 31.5 39.6 49v-9c-10.6-15.4-22.6-30-36.1-43.5S435.8 10.6 420.4 0h-9c9.3 6 18.4 12.6 27 19.8 1.9 1.5 3.8 3.1 5.7 4.7z" opacity=".24"></path><path fill="#FFF" d="M500 79.6v-8.8c-6.8-9.4-14.1-18.4-22-27.1-3.4-3.8-7-7.5-10.6-11.1-12-12-24.8-22.9-38.3-32.6h-8.7c15.4 10.6 30 22.6 43.5 36.1s25.5 28.1 36.1 43.5z" opacity=".85"></path><path fill="#000" d="M478 43.65c7.9 8.688 15.2 17.763 22 27.15v-8.388c-8.8-11.784-18.5-22.868-29-33.453C460.5 18.374 449.3 8.788 437.6 0h-8.4c13.5 9.686 26.3 20.761 38.3 32.744 3.6 3.595 7.1 7.111 10.5 10.906z" opacity=".26"></path><path fill="#FFF" d="M500 62.4v-8.2c-7.9-10-16.4-19.6-25.5-28.7-9.1-9.1-18.7-17.6-28.7-25.5h-8.2c11.7 8.8 22.8 18.5 33.4 29 10.6 10.5 20.2 21.7 29 33.4z" opacity=".9"></path><path fill="#000" d="M500 54.2v-8c-6.9-8.4-14.2-16.5-22-24.2-7.7-7.8-15.8-15.1-24.2-22h-8c10 7.9 19.6 16.4 28.7 25.5 9.1 9.1 17.6 18.7 25.5 28.7z" opacity=".28"></path><path fill="#FFF" d="M500 46.2v-7.8c-5.8-6.9-12-13.6-18.4-20-6.5-6.4-13.2-12.6-20-18.4h-7.8c8.4 6.9 16.5 14.2 24.2 22 7.7 7.8 15.1 15.8 22 24.2z" opacity=".95"></path><path fill="#000" d="M500 38.4v-7.6c-4.8-5.4-9.7-10.8-14.9-15.9C480 9.7 474.6 4.8 469.2 0h-7.6c6.9 5.8 13.6 12 20 18.4 6.4 6.5 12.6 13.2 18.4 20z" opacity=".3"></path><path fill="#FFF" d="M500 30.8v-7.6c-3.7-4-7.5-7.9-11.4-11.8-3.8-3.9-7.7-7.7-11.8-11.4h-7.6c5.4 4.8 10.8 9.7 15.9 14.9 5.2 5.1 10.1 10.5 14.9 15.9z"></path><path fill="#000" d="M500 23.2v-7.3c-.6-.7-1.2-1.3-1.8-2-2-2.1-4-4.1-6-6.1-2.7-2.7-5.4-5.3-8.1-7.8h-7.3c3.266 2.744 11 10.477 23.2 23.2z" opacity=".32"></path><path fill="#FFF" d="M498.2 13.987c.6.705 1.2 1.309 1.8 2.013V8.755c-1.4-1.51-2.8-3.02-4.3-4.428-1.5-1.409-2.9-2.918-4.4-4.327H484l8.1 7.85c2.1 2.012 4.1 4.125 6.1 6.137z"></path><path fill="#000" d="M500 0h-8.7c1.5 1.4 2.9 2.8 4.4 4.3 1.5 1.5 2.9 2.9 4.3 4.4V0z" opacity=".34"></path></g><g><path fill="#FFF" d="M214.3 0h-26.4c-45 11.1-86.4 34.3-120 67.9-33.6 33.6-56.8 75-67.9 120v26.4c7.6-53.9 32.3-103.7 71.5-142.9C110.6 32.3 160.4 7.6 214.3 0z" opacity=".6"></path><path fill="#000" d="M187.9 0h-18.3C130.3 12.6 94.4 34.4 64.4 64.4c-1.5 1.5-3.1 3.1-4.6 4.7-27.6 29-47.9 63.3-59.8 100.5v18.3c11.1-45 34.3-86.4 67.9-120 33.7-33.6 75-56.8 120-67.9z" opacity=".16"></path><path fill="#FFF" d="M64.4 64.4c30-30 66-51.8 105.2-64.4h-15.1c-34.7 13.2-66.6 33.8-93.6 60.8C33.8 87.9 13.2 119.7 0 154.5v15.1c11.9-37.2 32.2-71.5 59.8-100.5 1.5-1.6 3-3.2 4.6-4.7z" opacity=".65"></path><path fill="#000" d="M154.4 0h-13.2c-2.3 1-4.6 2-6.8 3.1-28.3 13.3-54.3 31.5-77.1 54.2-24.6 24.6-43.9 53-57.3 83.9v13.2c13.2-34.7 33.8-66.6 60.8-93.6S119.6 13.2 154.4 0z" opacity=".18"></path><path fill="#FFF" d="M134.495 3.1C136.797 2 139.098 1 141.3 0h-12.008c-27.62 13.4-53.138 31.4-75.554 53.8C31.422 76.1 13.409 101.6 0 129.3v12c13.51-30.9 32.723-59.4 57.34-83.9 22.817-22.8 48.835-41.1 77.155-54.3z" opacity=".7"></path><path fill="#000" d="M129.3 0h-11.1C99.5 9.9 81.9 21.8 65.7 35.9c-1.8 1.5-3.5 3.1-5.3 4.6-3.5 3.1-6.9 6.4-10.2 9.7-20.3 20.4-37.1 43.3-50.2 68v11.1c13.4-27.6 31.4-53.1 53.8-75.5C76.1 31.4 101.6 13.4 129.3 0z" opacity=".2"></path><path fill="#FFF" d="M60.4 40.5c1.7-1.6 3.5-3.1 5.3-4.6 16.2-14 33.8-26 52.5-35.9h-10.4C85.7 12.6 65.2 28.2 46.7 46.7 28.2 65.2 12.6 85.7 0 107.8v10.4c13.1-24.7 29.9-47.6 50.2-67.9 3.4-3.4 6.8-6.6 10.2-9.8z" opacity=".75"></path><path fill="#000" d="M107.8 0H98a289.5 289.5 0 0 0-54.8 43.2A289.5 289.5 0 0 0 0 98v9.8c12.6-22.1 28.2-42.6 46.7-61.1 18.5-18.5 39-34.1 61.1-46.7z" opacity=".22"></path><path fill="#FFF" d="M98 0h-9.4c-17.5 11.3-33.9 24.6-49 39.6-5.3 5.3-10.3 10.7-15.1 16.3-1.6 1.9-3.2 3.7-4.7 5.6C12.6 70.2 6 79.3 0 88.6V98c12-19.7 26.4-38.1 43.2-54.8A289.5 289.5 0 0 1 98 0z" opacity=".8"></path><path fill="#000" d="M24.5 55.9c4.8-5.6 9.9-11 15.1-16.3 15.1-15 31.5-28.3 49-39.6h-9c-15.4 10.6-30 22.6-43.5 36.1S10.6 64.2 0 79.6v9c6-9.3 12.6-18.4 19.8-27 1.5-1.9 3.1-3.8 4.7-5.7z" opacity=".24"></path><path fill="#FFF" d="M79.6 0h-8.8c-9.4 6.8-18.4 14.1-27.1 22-3.8 3.4-7.5 7-11.1 10.6-12 12-22.9 24.8-32.6 38.3v8.7c10.6-15.4 22.6-30 36.1-43.5S64.2 10.6 79.6 0z" opacity=".85"></path><path fill="#000" d="M43.65 22C52.338 14.1 61.413 6.8 70.8 0h-8.388C50.628 8.8 39.544 18.5 28.959 29 18.374 39.5 8.788 50.7 0 62.4v8.4c9.686-13.5 20.761-26.3 32.744-38.3 3.595-3.6 7.111-7.1 10.906-10.5z" opacity=".26"></path><path fill="#FFF" d="M62.4 0h-8.2c-10 7.9-19.6 16.4-28.7 25.5C16.4 34.6 7.9 44.2 0 54.2v8.2C8.8 50.7 18.5 39.6 29 29 39.5 18.4 50.7 8.8 62.4 0z" opacity=".9"></path><path fill="#000" d="M54.2 0h-8C37.8 6.9 29.7 14.2 22 22 14.2 29.7 6.9 37.8 0 46.2v8c7.9-10 16.4-19.6 25.5-28.7C34.6 16.4 44.2 7.9 54.2 0z" opacity=".28"></path><path fill="#FFF" d="M46.2 0h-7.8c-6.9 5.8-13.6 12-20 18.4C12 24.9 5.8 31.6 0 38.4v7.8C6.9 37.8 14.2 29.7 22 22c7.8-7.7 15.8-15.1 24.2-22z" opacity=".95"></path><path fill="#000" d="M38.4 0h-7.6C25.4 4.8 20 9.7 14.9 14.9 9.7 20 4.8 25.4 0 30.8v7.6c5.8-6.9 12-13.6 18.4-20C24.9 12 31.6 5.8 38.4 0z" opacity=".3"></path><path fill="#FFF" d="M30.8 0h-7.6c-4 3.7-7.9 7.5-11.8 11.4C7.5 15.2 3.7 19.1 0 23.2v7.6C4.8 25.4 9.7 20 14.9 14.9 20 9.7 25.4 4.8 30.8 0z"></path><path fill="#000" d="M23.2 0h-7.3c-.7.6-1.3 1.2-2 1.8-2.1 2-4.1 4-6.1 6-2.7 2.7-5.3 5.4-7.8 8.1v7.3c2.744-3.266 10.477-11 23.2-23.2z" opacity=".32"></path><path fill="#FFF" d="M13.987 1.8C14.692 1.2 15.296.6 16 0H8.755c-1.51 1.4-3.02 2.8-4.428 4.3C2.918 5.8 1.409 7.2 0 8.7V16l7.85-8.1c2.012-2.1 4.125-4.1 6.137-6.1z"></path><path fill="#000" d="M0 0v8.7c1.4-1.5 2.8-2.9 4.3-4.4C5.8 2.8 7.2 1.4 8.7 0H0z" opacity=".34"></path></g></g></svg>